<svg width="20" height="20" viewBox="0 0 20 20" fill="none" xmlns="http://www.w3.org/2000/svg">
<path d="M16 16C16.5304 16 17.0391 16.2107 17.4142 16.5858C17.7893 16.9609 18 17.4696 18 18C18 18.5304 17.7893 19.0391 17.4142 19.4142C17.0391 19.7893 16.5304 20 16 20C14.89 20 14 19.1 14 18C14 16.89 14.89 16 16 16ZM0 1C0 0.447715 0.447715 0 1 0H2.63506C3.02259 0 3.37524 0.22391 3.54008 0.574639L3.93992 1.42536C4.10476 1.77609 4.45741 2 4.84494 2H19C19.2652 2 19.5196 2.10536 19.7071 2.29289C19.8946 2.48043 20 2.73478 20 3C20 3.17 19.95 3.34 19.88 3.5L16.3 9.97C15.96 10.58 15.3 11 14.55 11H7.69016C7.32606 11 6.99073 11.1979 6.81474 11.5166L6.23076 12.5743C6.21034 12.6113 6.19481 12.6508 6.18456 12.6917V12.6917C6.17489 12.7304 6.16769 12.7707 6.17718 12.8095C6.18796 12.8535 6.21063 12.8942 6.24322 12.9268C6.29011 12.9737 6.3537 13 6.42 13H17C17.5523 13 18 13.4477 18 14V14C18 14.5523 17.5523 15 17 15H6C4.89 15 4 14.1 4 13C4 12.65 4.09 12.32 4.24 12.04L5.35052 10.0394C5.5071 9.75736 5.51797 9.41706 5.37971 9.12555L2.27104 2.57145C2.10551 2.22246 1.75379 2 1.36753 2H1C0.447715 2 0 1.55228 0 1V1ZM6 16C6.53043 16 7.03914 16.2107 7.41421 16.5858C7.78929 16.9609 8 17.4696 8 18C8 18.5304 7.78929 19.0391 7.41421 19.4142C7.03914 19.7893 6.53043 20 6 20C4.89 20 4 19.1 4 18C4 16.89 4.89 16 6 16ZM14.4118 9C14.7749 9 15.1094 8.80324 15.2858 8.48594L16.9538 5.48594C17.3244 4.8194 16.8425 4 16.0798 4H6.71779C5.98428 4 5.50037 4.7635 5.81347 5.42684L7.22947 8.42684C7.39463 8.77677 7.74685 9 8.1338 9H14.4118Z" fill="white"/>
</svg>
