<svg width="400" height="200" viewBox="0 0 400 200" fill="none" xmlns="http://www.w3.org/2000/svg">
<path d="M78.67 127.97V126.36C75.2633 129.72 71.2967 131.4 66.77 131.4C63.2233 131.4 60.33 130.35 58.09 128.25C55.8967 126.15 54.8 123.42 54.8 120.06C54.8 118.193 55.1733 116.467 55.92 114.88C56.6667 113.293 57.6467 112.033 58.86 111.1C60.0733 110.12 61.24 109.397 62.36 108.93C63.5267 108.463 64.9967 108.09 66.77 107.81C68.59 107.483 72.5567 107.25 78.67 107.11V105.64C78.67 103.633 78.0633 102.14 76.85 101.16C75.6833 100.18 73.8633 99.69 71.39 99.69C68.45 99.69 65.93 100.18 63.83 101.16C62.29 101.86 61.1233 102.21 60.33 102.21C60.0967 102.21 59.77 102.117 59.35 101.93C58.93 101.697 58.6033 101.463 58.37 101.23C57.67 100.577 57.32 99.69 57.32 98.57C57.32 97.03 58.0667 95.7933 59.56 94.86C62.5467 93.0867 66.5833 92.2 71.67 92.2C76.85 92.2 80.8167 93.39 83.57 95.77C86.37 98.15 87.77 101.557 87.77 105.99V127.62C87.77 128.74 87.3267 129.65 86.44 130.35C85.6 131.05 84.5033 131.4 83.15 131.4C81.8433 131.4 80.77 131.073 79.93 130.42C79.09 129.767 78.67 128.95 78.67 127.97ZM78.67 113.62H78.18L78.04 113.69C72.7667 113.737 69.29 114.11 67.61 114.81C65.1833 115.697 63.97 117.19 63.97 119.29C63.97 120.69 64.4367 121.81 65.37 122.65C66.3033 123.49 67.54 123.91 69.08 123.91C70.3867 123.91 71.7633 123.677 73.21 123.21C74.7033 122.743 76.5233 121.577 78.67 119.71V113.62ZM106.054 96.33V99.9C106.567 98.92 107.057 98.08 107.524 97.38C107.99 96.6333 108.714 95.84 109.694 95C110.767 94.16 112.027 93.4833 113.474 92.97C114.967 92.4567 116.414 92.2 117.814 92.2C119.12 92.2 120.124 92.5967 120.824 93.39C121.57 94.1833 121.944 95.28 121.944 96.68C121.944 97.52 121.78 98.29 121.454 98.99C121.127 99.69 120.707 100.203 120.194 100.53C119.634 100.95 118.63 101.207 117.184 101.3C114.057 101.533 111.63 102.373 109.904 103.82C108.224 105.22 106.94 107.46 106.054 110.54V127.06C106.054 128.367 105.634 129.417 104.794 130.21C103.954 131.003 102.834 131.4 101.434 131.4C100.034 131.4 98.8903 131.003 98.0037 130.21C97.1637 129.417 96.7437 128.367 96.7437 127.06V96.33C96.7437 95.07 97.1637 94.0667 98.0037 93.32C98.8903 92.5733 100.034 92.2 101.434 92.2C102.834 92.2 103.954 92.5733 104.794 93.32C105.634 94.0667 106.054 95.07 106.054 96.33ZM150.822 127.55V125.45C149.609 127.457 148.139 128.95 146.412 129.93C144.732 130.91 142.725 131.4 140.392 131.4C135.865 131.4 132.225 129.58 129.472 125.94C126.719 122.3 125.342 117.493 125.342 111.52C125.342 108.673 125.692 106.06 126.392 103.68C127.139 101.253 128.189 99.2 129.542 97.52C130.895 95.7933 132.529 94.4867 134.442 93.6C136.355 92.6667 138.455 92.2 140.742 92.2C142.982 92.2 144.919 92.62 146.552 93.46C148.185 94.3 149.609 95.6067 150.822 97.38V79.67C150.822 78.41 151.242 77.3833 152.082 76.59C152.922 75.7967 154.019 75.4 155.372 75.4C156.725 75.4 157.822 75.7967 158.662 76.59C159.502 77.3833 159.922 78.41 159.922 79.67V127.41C159.922 128.577 159.479 129.533 158.592 130.28C157.752 131.027 156.655 131.4 155.302 131.4C154.649 131.4 153.972 131.26 153.272 130.98C152.619 130.747 152.082 130.42 151.662 130C151.102 129.487 150.822 128.67 150.822 127.55ZM150.822 106.55L150.612 106.06C149.072 101.907 146.482 99.83 142.842 99.83C141.535 99.83 140.345 100.11 139.272 100.67C138.245 101.23 137.429 102 136.822 102.98C136.215 104.053 135.725 105.407 135.352 107.04C135.025 108.673 134.862 110.33 134.862 112.01C134.862 115.743 135.515 118.637 136.822 120.69C138.175 122.743 140.065 123.77 142.492 123.77C144.452 123.77 146.132 123.14 147.532 121.88C148.979 120.573 150.075 118.707 150.822 116.28V106.55ZM180.693 119.85L186.433 97.87C187.039 95.6767 187.856 94.2067 188.883 93.46C190.003 92.62 191.263 92.2 192.663 92.2C194.203 92.2 195.579 92.69 196.793 93.67C197.726 94.4633 198.426 95.8633 198.893 97.87L204.563 119.85L210.933 95.63C211.213 94.51 211.703 93.67 212.403 93.11C213.149 92.5033 214.059 92.2 215.133 92.2C216.253 92.2 217.233 92.5733 218.073 93.32C218.913 94.02 219.333 94.86 219.333 95.84C219.333 96.4933 219.193 97.31 218.913 98.29L211.003 126.36C210.536 127.9 209.743 129.113 208.623 130C207.549 130.933 206.266 131.4 204.773 131.4C203.233 131.4 201.856 130.933 200.643 130C200.176 129.58 199.709 128.973 199.243 128.18C198.823 127.387 198.496 126.477 198.263 125.45L192.663 103.12L186.993 125.45C186.339 127.783 185.453 129.347 184.333 130.14C183.213 130.98 181.929 131.4 180.483 131.4C178.943 131.4 177.613 130.957 176.493 130.07C175.419 129.183 174.673 127.947 174.253 126.36L166.343 98.29C166.109 97.3567 165.993 96.5867 165.993 95.98C165.993 94.9067 166.389 94.02 167.183 93.32C167.976 92.5733 168.933 92.2 170.053 92.2C171.126 92.2 172.036 92.5033 172.783 93.11C173.529 93.7167 174.043 94.5567 174.323 95.63L180.693 119.85ZM247.518 127.97V126.36C244.111 129.72 240.144 131.4 235.618 131.4C232.071 131.4 229.178 130.35 226.938 128.25C224.744 126.15 223.648 123.42 223.648 120.06C223.648 118.193 224.021 116.467 224.768 114.88C225.514 113.293 226.494 112.033 227.708 111.1C228.921 110.12 230.088 109.397 231.208 108.93C232.374 108.463 233.844 108.09 235.618 107.81C237.438 107.483 241.404 107.25 247.518 107.11V105.64C247.518 103.633 246.911 102.14 245.698 101.16C244.531 100.18 242.711 99.69 240.238 99.69C237.298 99.69 234.778 100.18 232.678 101.16C231.138 101.86 229.971 102.21 229.178 102.21C228.944 102.21 228.618 102.117 228.198 101.93C227.778 101.697 227.451 101.463 227.218 101.23C226.518 100.577 226.168 99.69 226.168 98.57C226.168 97.03 226.914 95.7933 228.408 94.86C231.394 93.0867 235.431 92.2 240.518 92.2C245.698 92.2 249.664 93.39 252.418 95.77C255.218 98.15 256.618 101.557 256.618 105.99V127.62C256.618 128.74 256.174 129.65 255.288 130.35C254.448 131.05 253.351 131.4 251.998 131.4C250.691 131.4 249.618 131.073 248.778 130.42C247.938 129.767 247.518 128.95 247.518 127.97ZM247.518 113.62H247.028L246.888 113.69C241.614 113.737 238.138 114.11 236.458 114.81C234.031 115.697 232.818 117.19 232.818 119.29C232.818 120.69 233.284 121.81 234.218 122.65C235.151 123.49 236.388 123.91 237.928 123.91C239.234 123.91 240.611 123.677 242.058 123.21C243.551 122.743 245.371 121.577 247.518 119.71V113.62ZM274.901 96.33V99.9C275.415 98.92 275.905 98.08 276.371 97.38C276.838 96.6333 277.561 95.84 278.541 95C279.615 94.16 280.875 93.4833 282.321 92.97C283.815 92.4567 285.261 92.2 286.661 92.2C287.968 92.2 288.971 92.5967 289.671 93.39C290.418 94.1833 290.791 95.28 290.791 96.68C290.791 97.52 290.628 98.29 290.301 98.99C289.975 99.69 289.555 100.203 289.041 100.53C288.481 100.95 287.478 101.207 286.031 101.3C282.905 101.533 280.478 102.373 278.751 103.82C277.071 105.22 275.788 107.46 274.901 110.54V127.06C274.901 128.367 274.481 129.417 273.641 130.21C272.801 131.003 271.681 131.4 270.281 131.4C268.881 131.4 267.738 131.003 266.851 130.21C266.011 129.417 265.591 128.367 265.591 127.06V96.33C265.591 95.07 266.011 94.0667 266.851 93.32C267.738 92.5733 268.881 92.2 270.281 92.2C271.681 92.2 272.801 92.5733 273.641 93.32C274.481 94.0667 274.901 95.07 274.901 96.33ZM320.51 114.74H303.36C303.593 117.773 304.456 120.083 305.95 121.67C307.49 123.257 309.59 124.05 312.25 124.05C314.396 124.05 316.45 123.49 318.41 122.37C319.203 121.95 319.786 121.647 320.16 121.46C320.58 121.273 321.046 121.18 321.56 121.18C322.446 121.18 323.193 121.553 323.8 122.3C324.453 123 324.78 123.863 324.78 124.89C324.78 126.337 324.103 127.597 322.75 128.67C320.463 130.49 316.963 131.4 312.25 131.4C305.343 131.4 300.326 128.88 297.2 123.84C295.193 120.48 294.19 116.397 294.19 111.59C294.19 108.743 294.563 106.107 295.31 103.68C296.103 101.253 297.223 99.2 298.67 97.52C300.116 95.7933 301.843 94.4867 303.85 93.6C305.903 92.6667 308.143 92.2 310.57 92.2C313.416 92.2 315.96 92.8067 318.2 94.02C320.486 95.2333 322.213 96.9133 323.38 99.06C324.173 100.46 324.826 102.117 325.34 104.03C325.9 105.897 326.18 107.647 326.18 109.28C326.18 110.913 325.666 112.243 324.64 113.27C323.613 114.25 322.236 114.74 320.51 114.74ZM303.5 107.67H315.96C316.333 107.67 316.636 107.553 316.87 107.32C317.103 107.087 317.22 106.783 317.22 106.41C317.22 105.99 317.103 105.407 316.87 104.66C316.636 103.913 316.356 103.237 316.03 102.63C315.516 101.65 314.77 100.88 313.79 100.32C312.81 99.76 311.736 99.48 310.57 99.48C306.836 99.48 304.48 102.21 303.5 107.67Z" fill="white"/>
<path d="M42 88L42 144" stroke="url(#paint0_linear_11_2)" stroke-width="10" stroke-linecap="round"/>
<path d="M7 67L7 135" stroke="url(#paint1_linear_11_2)" stroke-width="10" stroke-linecap="round"/>
<path d="M30 112C30 109.239 27.7614 107 25 107C22.2386 107 20 109.239 20 112C20 114.761 22.2386 117 25 117C27.7614 117 30 114.761 30 112ZM22.5 112C22.5 110.619 23.6193 109.5 25 109.5C26.3807 109.5 27.5 110.619 27.5 112C27.5 113.381 26.3807 114.5 25 114.5C23.6193 114.5 22.5 113.381 22.5 112Z" fill="url(#paint2_linear_11_2)"/>
<path d="M42 144H387" stroke="#860DA0" stroke-width="10" stroke-linecap="round"/>
<path d="M7 67L325 67" stroke="url(#paint3_linear_11_2)" stroke-width="10" stroke-linecap="round"/>
<path d="M376 80L336 127" stroke="white" stroke-width="10" stroke-linecap="round"/>
<path d="M336 81L376 128" stroke="#860DA0" stroke-width="10" stroke-linecap="round"/>
<defs>
<linearGradient id="paint0_linear_11_2" x1="43.5" y1="138.5" x2="37.5" y2="91.5" gradientUnits="userSpaceOnUse">
<stop stop-color="#860DA0"/>
<stop offset="1" stop-color="#CF6E3F"/>
</linearGradient>
<linearGradient id="paint1_linear_11_2" x1="5.49997" y1="89.5" x2="5.49994" y2="128.5" gradientUnits="userSpaceOnUse">
<stop stop-color="#CF6E3F"/>
<stop offset="1" stop-color="#860DA0"/>
</linearGradient>
<linearGradient id="paint2_linear_11_2" x1="25" y1="117" x2="25" y2="107" gradientUnits="userSpaceOnUse">
<stop stop-color="#860DA0"/>
<stop offset="1" stop-color="#CF6E3F"/>
</linearGradient>
<linearGradient id="paint3_linear_11_2" x1="113.331" y1="68.999" x2="335.992" y2="102.092" gradientUnits="userSpaceOnUse">
<stop stop-color="#CF6E3F"/>
<stop offset="1" stop-color="#860DA0"/>
</linearGradient>
</defs>
</svg>
